<svg xmlns="http://www.w3.org/2000/svg" viewBox="0 0 32 32" width="32" height="32">
  <defs>
    <radialGradient id="machineGradient" cx="0.5" cy="0.5" r="0.5">
      <stop offset="0%" style="stop-color:#00d4ff;stop-opacity:1" />
      <stop offset="50%" style="stop-color:#0099cc;stop-opacity:1" />
      <stop offset="100%" style="stop-color:#004466;stop-opacity:1" />
    </radialGradient>
  </defs>
  
  <!-- Background circle -->
  <circle cx="16" cy="16" r="15" fill="#1a1a1a" stroke="#333" stroke-width="1"/>
  
  <!-- Main gear -->
  <g fill="url(#machineGradient)" stroke="#00ff88" stroke-width="0.5">
    <!-- Gear teeth -->
    <polygon points="16,2 18,4 14,4"/>
    <polygon points="28,14 30,16 26,16"/>
    <polygon points="16,30 14,28 18,28"/>
    <polygon points="4,18 2,16 6,16"/>
    <polygon points="25,7 27,9 23,9"/>
    <polygon points="25,25 23,23 27,23"/>
    <polygon points="7,25 9,23 5,23"/>
    <polygon points="7,7 5,9 9,9"/>
    
    <!-- Main gear body -->
    <circle cx="16" cy="16" r="8" fill="url(#machineGradient)" stroke="#00ff88" stroke-width="1"/>
    
    <!-- Inner circle -->
    <circle cx="16" cy="16" r="4" fill="#004466" stroke="#00d4ff" stroke-width="1"/>
    
    <!-- Center dot -->
    <circle cx="16" cy="16" r="1.5" fill="#00ff88"/>
  </g>
  
  <!-- Small world dots -->
  <circle cx="10" cy="10" r="1" fill="#ffaa00" opacity="0.8"/>
  <circle cx="22" cy="10" r="1" fill="#ff6600" opacity="0.8"/>
  <circle cx="22" cy="22" r="1" fill="#00ff88" opacity="0.8"/>
  <circle cx="10" cy="22" r="1" fill="#4488ff" opacity="0.8"/>
</svg>
